<?xml version="1.0" encoding="utf-8"?>
<!-- Generator: Adobe Illustrator 19.1.0, SVG Export Plug-In . SVG Version: 6.00 Build 0)  -->
<svg version="1.1" id="Layer_1" xmlns="http://www.w3.org/2000/svg" xmlns:xlink="http://www.w3.org/1999/xlink" x="0px" y="0px"
	 viewBox="0 0 197.3 75.2" enable-background="new 0 0 197.3 75.2" xml:space="preserve">
<path fill="#FFFFFF" d="M12.7,48.6c-1.8-0.5-3.3-1.1-4.4-2l2-4.6c1.2,0.7,2.5,1.3,3.8,1.7c1.4,0.4,2.7,0.6,4.1,0.6
	c1.4,0,2.5-0.2,3.2-0.6c0.7-0.4,1.1-0.9,1.1-1.6c0-0.6-0.3-1.1-1-1.5c-0.7-0.4-1.9-0.8-3.8-1.2c-2.3-0.5-4.1-1.1-5.4-1.8
	c-1.3-0.7-2.2-1.5-2.7-2.4c-0.5-0.9-0.8-2-0.8-3.4c0-1.5,0.4-2.9,1.3-4.1c0.9-1.2,2.1-2.1,3.6-2.8c1.6-0.7,3.3-1,5.3-1
	c1.8,0,3.5,0.3,5.2,0.8c1.7,0.5,3,1.1,3.9,1.9l-2,4.5c-2.2-1.5-4.6-2.3-7.1-2.3c-1.2,0-2.1,0.2-2.9,0.7c-0.7,0.5-1.1,1.1-1.1,1.8
	c0,0.4,0.1,0.8,0.4,1.1c0.3,0.3,0.7,0.6,1.4,0.8c0.7,0.3,1.7,0.5,3.1,0.8c2.2,0.5,4,1.1,5.3,1.8c1.3,0.7,2.2,1.5,2.7,2.4
	c0.5,0.9,0.8,2,0.8,3.3c0,2.4-0.9,4.3-2.8,5.7c-1.9,1.4-4.5,2-7.9,2C16.3,49.3,14.5,49.1,12.7,48.6z"/>
<path fill="#FFFFFF" d="M37.5,49V29.5h-7.4v-5.2h21.3v5.2H44V49H37.5z"/>
<path fill="#FFFFFF" d="M69.7,49l-2.2-5.1H56.5L54.3,49h-6.5l11.5-24.7h5.1L76,49H69.7z M58.6,39.1h6.8L62,31.2L58.6,39.1z"/>
<path fill="#FFFFFF" d="M99.7,49h-7.1l-4.3-7.9c-0.5-0.9-1.4-1.4-2.6-1.4h-2V49h-6.3V24.3h11.8c3,0,5.2,0.6,6.7,1.9
	c1.5,1.3,2.3,3.2,2.3,5.6c0,1.9-0.5,3.4-1.5,4.7c-1,1.3-2.5,2.2-4.3,2.6c1.4,0.3,2.6,1.2,3.4,2.8L99.7,49z M91.3,34.3
	c0.6-0.4,0.9-1.2,0.9-2.2c0-1-0.3-1.8-0.9-2.2s-1.6-0.7-3.1-0.7h-4.5v5.7h4.5C89.7,34.9,90.7,34.7,91.3,34.3z"/>
<path fill="#2F2933" d="M102.2,49V24.3h17.2v5h-10.8v4.5h10.2v5h-10.2v10H102.2z"/>
<path fill="#2F2933" d="M122.5,49V24.3h6.4V49H122.5z"/>
<path fill="#2F2933" d="M133.4,49V24.3h17.5v5h-11.3V34h10.6v4.9h-10.6V44h11.3v5H133.4z"/>
<path fill="#2F2933" d="M154.3,49V24.3h6.4v19.5h10.5V49H154.3z"/>
<path fill="#2F2933" d="M174.3,24.3h10c2.7,0,5.1,0.5,7.1,1.5c2,1,3.5,2.4,4.5,4.3s1.6,4.1,1.6,6.6c0,2.6-0.5,4.8-1.6,6.6
	c-1,1.9-2.5,3.3-4.5,4.3s-4.3,1.5-7.1,1.5h-10V24.3z M183.9,43.8c2.4,0,4.2-0.6,5.4-1.8c1.2-1.2,1.8-3,1.8-5.4
	c0-2.4-0.6-4.2-1.8-5.4c-1.2-1.2-3-1.8-5.4-1.8h-3.2v14.3H183.9z"/>
<circle fill="#FFFFFF" cx="11.3" cy="12" r="4.6"/>
<path fill="#2F2933" d="M72.6,51.1c-5.5,14-19.1,24-35.1,24C16.9,75.2,0,58.3,0,37.6C0,30,2.3,22.7,6.5,16.4l1.7,1.1
	C4.1,23.4,2,30.4,2,37.6c0,19.6,16,35.6,35.6,35.6c14.8,0,27.6-9.1,32.9-22L72.6,51.1z"/>
<path fill="#2F2933" d="M73.1,38.8c0-0.4,0-0.8,0-1.2C73.2,18,57.2,2,37.6,2c-7.5,0-14.6,2.3-20.7,6.6L15.7,7c6.4-4.6,14-7,21.9-7
	c20.7,0,37.6,16.9,37.6,37.6c0,1.5-0.1,3-0.3,4.5L73.1,38.8z"/>
</svg>
