<?xml version="1.0" encoding="utf-8"?>
<!-- Generator: Adobe Illustrator 19.1.0, SVG Export Plug-In . SVG Version: 6.00 Build 0)  -->
<svg version="1.1" id="Layer_1" xmlns="http://www.w3.org/2000/svg" xmlns:xlink="http://www.w3.org/1999/xlink" x="0px" y="0px"
	 viewBox="0 0 283.5 283.5" enable-background="new 0 0 283.5 283.5" xml:space="preserve">
<path fill="#E30613" d="M51.8,0c6.7,4.3,13.3,8.9,19.7,13.5c6.4,4.6,12.8,9.3,19.1,14.1l9.4,7.2c3.1,2.4,6.2,4.8,9.3,7.3
	c6.2,4.9,12.3,9.9,18.3,14.9c6.1,5,12,10.1,18,15.2l8.9,7.7l8.9,7.7c11.8,10.4,23.3,20.9,34.7,31.6l33.6,31.4l-47.2,1.4l-11.7,0.3
	l-11.7,0.3c-7.8,0.2-15.7,0.2-23.5,0.3c-1,0,0.2,0.6,3.5,4.7c6,6.6,11.9,13.2,17.7,19.9l8.8,10.1l8.6,10.2c2.9,3.4,5.8,6.8,8.6,10.3
	l8.5,10.4l8.3,10.5c2.8,3.5,5.5,7.1,8.2,10.6c2.8,3.5,5.4,7.1,8.1,10.7c2.7,3.6,5.3,7.2,8,10.9c5.2,7.3,10.4,14.7,15.3,22.3
	c-7.7-4.9-15-10.1-22.3-15.3c-3.6-2.7-7.3-5.3-10.9-8c-3.6-2.7-7.2-5.4-10.7-8.1c-3.5-2.8-7.1-5.4-10.6-8.2l-10.5-8.3l-10.4-8.5
	c-3.5-2.8-6.9-5.7-10.3-8.6l-10.2-8.6l-10.1-8.8c-6.7-5.8-13.4-11.8-19.9-17.7c-6.6-6-13.1-12-19.6-18.1
	c-6.5-6.1-12.9-12.2-19.3-18.4l-34.3-33.1l48.4-0.9c7.8-0.1,15.7-0.2,23.5-0.3c7.8-0.1,15.7,0,23.5,0c3.2,0,2.9,0.2,1.8-1l-7.7-8.9
	l-7.7-8.9c-5-6-10.2-11.9-15.2-18c-5-6.1-10-12.1-14.9-18.3c-2.5-3.1-4.9-6.2-7.3-9.3l-7.2-9.4c-4.8-6.3-9.5-12.6-14.1-19.1
	C60.7,13.3,56.1,6.7,51.8,0z"/>
</svg>
