<?xml version="1.0" encoding="utf-8"?>
<!-- Generator: Adobe Illustrator 19.1.0, SVG Export Plug-In . SVG Version: 6.00 Build 0)  -->
<svg version="1.1" id="Layer_1" xmlns="http://www.w3.org/2000/svg" xmlns:xlink="http://www.w3.org/1999/xlink" x="0px" y="0px"
	 viewBox="0 0 340.3 340.3" enable-background="new 0 0 340.3 340.3" xml:space="preserve">
<circle fill="#FFFFFF" cx="170.2" cy="170.2" r="68.1"/>
<path opacity="0.5" fill="#FFFFFF" d="M170.2,340.3C76.3,340.3,0,264,0,170.2C0,76.3,76.3,0,170.2,0c35,0,68.6,10.5,97.2,30.5
	l-3.4,4.9C236.4,16.2,203.9,6,170.2,6C79.7,6,6,79.7,6,170.2s73.6,164.1,164.1,164.1s164.1-73.6,164.1-164.1
	c0-34.3-10.5-67.1-30.3-95l4.9-3.5c20.5,28.9,31.4,62.9,31.4,98.5C340.3,264,264,340.3,170.2,340.3z"/>
<path opacity="0.5" fill="#FFFFFF" d="M170.2,289.7c-65.9,0-119.5-53.6-119.5-119.5c0-65.9,53.6-119.5,119.5-119.5
	c65.9,0,119.5,53.6,119.5,119.5c0,27.2-9.4,53.9-26.5,75l-4.7-3.8c16.2-20.1,25.1-45.4,25.1-71.3c0-62.6-50.9-113.5-113.5-113.5
	S56.7,107.6,56.7,170.2s50.9,113.5,113.5,113.5c14.9,0,29.3-2.8,43-8.4l2.3,5.6C201.1,286.7,185.8,289.7,170.2,289.7z"/>
<circle fill="#FFFFFF" cx="288.6" cy="51.7" r="18.7"/>
<circle fill="#FFFFFF" cx="238.3" cy="261.3" r="18.7"/>
</svg>
