<?xml version="1.0" encoding="utf-8"?>
<!-- Generator: Adobe Illustrator 19.1.0, SVG Export Plug-In . SVG Version: 6.00 Build 0)  -->
<svg version="1.1" id="Layer_1" xmlns="http://www.w3.org/2000/svg" xmlns:xlink="http://www.w3.org/1999/xlink" x="0px" y="0px"
	 viewBox="0 0 340.3 340.3" enable-background="new 0 0 340.3 340.3" xml:space="preserve">
<path fill="#FFFFFF" d="M263.3,340.3H77.1c-39.5,0-64-43-43.8-77l83.7-140.9c8.7-14.6,13.2-31.3,13.2-48.2V30c0-5.5-4.5-10-10-10h0
	c-5.5,0-10-4.5-10-10v0c0-5.5,4.5-10,10-10l100.1,0c5.5,0,10,4.5,10,10v0c0,5.5-4.5,10-10,10h0c-5.5,0-10,4.5-10,10v44.1
	c0,17,4.6,33.6,13.2,48.2l83.7,140.9C327.3,297.3,302.8,340.3,263.3,340.3z"/>
</svg>
