<?xml version="1.0" encoding="utf-8"?>
<!-- Generator: Adobe Illustrator 19.1.0, SVG Export Plug-In . SVG Version: 6.00 Build 0)  -->
<svg version="1.1" id="Layer_1" xmlns="http://www.w3.org/2000/svg" xmlns:xlink="http://www.w3.org/1999/xlink" x="0px" y="0px"
	 viewBox="0 0 283.5 283.5" enable-background="new 0 0 283.5 283.5" xml:space="preserve">
<path opacity="0.5" fill="#FFFFFF" d="M126.1,134.1L87.7,90.5c-11.2-12.7-17.3-29-17.3-45.9V12c0-6.6,5.4-12,12-12h118.8
	c6.6,0,12,5.4,12,12v32.7c0,16.9-6.2,33.2-17.3,45.9l-38.5,43.6c-3.8,4.4-3.8,10.9,0,15.3l38.5,43.6c11.2,12.7,17.3,29,17.3,45.9
	v32.7c0,6.6-5.4,12-12,12H82.3c-6.6,0-12-5.4-12-12v-32.7c0-16.9,6.2-33.2,17.3-45.9l38.5-43.6C130,145,130,138.5,126.1,134.1z"/>
<path fill="#FFFFFF" d="M157.3,149.4l38.5,43.6c11.2,12.7,17.3,29,17.3,45.9v32.7c0,6.6-5.4,12-12,12H82.3c-6.6,0-12-5.4-12-12
	v-32.7c0-16.9,6.2-33.2,17.3-45.9l38.5-43.6H157.3z"/>
</svg>
